# xmcd
#
# Track frame offsets:
#	150
#	20809
#	40705
#	64730
#	82594
#	102623
#
# Disc length: 1675 seconds
#
# Revision: 0
# Processed by: cddbd v1.5.2PL0 Copyright (c) Steve Scherf et al.
# Submitted via: dBpowerAMP V4.0
#
DISCID=43068906
DTITLE=Various Artist - Revelation
DYEAR=1900
DGENRE=Country
TTITLE0=Bro. Austin - Track01
TTITLE1=Bro. Austin - Track02
TTITLE2=Bro. Austin - Track03
TTITLE3=Bro. Austin - Track04
TTITLE4=Bro. Austin - Track05
TTITLE5=Bro. Austin - Track06
EXTD=Music for the Soul
EXTT0=
EXTT1=
EXTT2=
EXTT3=
EXTT4=
EXTT5=
PLAYORDER=
